<mxfile host="app.diagrams.net" modified="2021-06-21T02:16:49.787Z" agent="5.0 (X11; Linux x86_64) AppleWebKit/537.36 (KHTML, like Gecko) Chrome/91.0.4472.101 Safari/537.36" etag="-9Ahw-w9OGqMvr7N7npK" version="14.8.0" type="github">
  <diagram id="J5QmjIEx1tVMb5MobxK4" name="Page-1">
    <mxGraphModel dx="1110" dy="1570" grid="1" gridSize="10" guides="1" tooltips="1" connect="1" arrows="1" fold="1" page="1" pageScale="1" pageWidth="850" pageHeight="1100" math="0" shadow="0">
      <root>
        <mxCell id="0" />
        <mxCell id="1" parent="0" />
        <mxCell id="NTB_mvJWUSRS30ezu_pN-1" value="Make a reservation" style="ellipse;whiteSpace=wrap;html=1;" vertex="1" parent="1">
          <mxGeometry x="220" y="110" width="90" height="40" as="geometry" />
        </mxCell>
        <mxCell id="NTB_mvJWUSRS30ezu_pN-2" value="Customer" style="shape=umlActor;verticalLabelPosition=bottom;verticalAlign=top;html=1;outlineConnect=0;" vertex="1" parent="1">
          <mxGeometry x="70" y="140" width="30" height="60" as="geometry" />
        </mxCell>
        <mxCell id="NTB_mvJWUSRS30ezu_pN-3" value="Cashier" style="shape=umlActor;verticalLabelPosition=bottom;verticalAlign=top;html=1;outlineConnect=0;" vertex="1" parent="1">
          <mxGeometry x="70" y="300" width="30" height="60" as="geometry" />
        </mxCell>
        <mxCell id="NTB_mvJWUSRS30ezu_pN-5" value="Place an order" style="ellipse;whiteSpace=wrap;html=1;" vertex="1" parent="1">
          <mxGeometry x="220" y="180" width="90" height="40" as="geometry" />
        </mxCell>
        <mxCell id="NTB_mvJWUSRS30ezu_pN-7" value="Waiter" style="shape=umlActor;verticalLabelPosition=bottom;verticalAlign=top;html=1;outlineConnect=0;" vertex="1" parent="1">
          <mxGeometry x="70" y="-20" width="30" height="60" as="geometry" />
        </mxCell>
        <mxCell id="NTB_mvJWUSRS30ezu_pN-9" value="Order food" style="ellipse;whiteSpace=wrap;html=1;" vertex="1" parent="1">
          <mxGeometry x="210" y="-10" width="90" height="40" as="geometry" />
        </mxCell>
        <mxCell id="NTB_mvJWUSRS30ezu_pN-10" value="Eat food" style="ellipse;whiteSpace=wrap;html=1;" vertex="1" parent="1">
          <mxGeometry x="220" y="240" width="90" height="40" as="geometry" />
        </mxCell>
        <mxCell id="NTB_mvJWUSRS30ezu_pN-11" value="Make a payment" style="ellipse;whiteSpace=wrap;html=1;" vertex="1" parent="1">
          <mxGeometry x="220" y="310" width="90" height="40" as="geometry" />
        </mxCell>
        <mxCell id="NTB_mvJWUSRS30ezu_pN-12" value="Drink wine" style="ellipse;whiteSpace=wrap;html=1;" vertex="1" parent="1">
          <mxGeometry x="400" y="240" width="90" height="40" as="geometry" />
        </mxCell>
        <mxCell id="NTB_mvJWUSRS30ezu_pN-13" value="Pay for wine" style="ellipse;whiteSpace=wrap;html=1;" vertex="1" parent="1">
          <mxGeometry x="400" y="310" width="90" height="40" as="geometry" />
        </mxCell>
        <mxCell id="NTB_mvJWUSRS30ezu_pN-14" value="{{if wine &lt;br&gt;was ordered}}" style="endArrow=none;html=1;exitX=1;exitY=0.5;exitDx=0;exitDy=0;entryX=0;entryY=0.5;entryDx=0;entryDy=0;" edge="1" parent="1" source="NTB_mvJWUSRS30ezu_pN-10" target="NTB_mvJWUSRS30ezu_pN-12">
          <mxGeometry width="50" height="50" relative="1" as="geometry">
            <mxPoint x="400" y="260" as="sourcePoint" />
            <mxPoint x="450" y="210" as="targetPoint" />
          </mxGeometry>
        </mxCell>
        <mxCell id="NTB_mvJWUSRS30ezu_pN-15" value="{{if wine&lt;br&gt;was ordered }}" style="endArrow=none;html=1;exitX=1;exitY=0.5;exitDx=0;exitDy=0;entryX=0;entryY=0.5;entryDx=0;entryDy=0;" edge="1" parent="1" source="NTB_mvJWUSRS30ezu_pN-11" target="NTB_mvJWUSRS30ezu_pN-13">
          <mxGeometry width="50" height="50" relative="1" as="geometry">
            <mxPoint x="330" y="270" as="sourcePoint" />
            <mxPoint x="410" y="270" as="targetPoint" />
          </mxGeometry>
        </mxCell>
        <mxCell id="NTB_mvJWUSRS30ezu_pN-16" value="" style="endArrow=none;html=1;exitX=0.5;exitY=0.5;exitDx=0;exitDy=0;exitPerimeter=0;entryX=0.067;entryY=0.775;entryDx=0;entryDy=0;entryPerimeter=0;" edge="1" parent="1" source="NTB_mvJWUSRS30ezu_pN-2" target="NTB_mvJWUSRS30ezu_pN-1">
          <mxGeometry width="50" height="50" relative="1" as="geometry">
            <mxPoint x="160" y="350" as="sourcePoint" />
            <mxPoint x="210" y="300" as="targetPoint" />
          </mxGeometry>
        </mxCell>
        <mxCell id="NTB_mvJWUSRS30ezu_pN-17" value="" style="endArrow=none;html=1;entryX=0;entryY=0.5;entryDx=0;entryDy=0;exitX=0.5;exitY=0.5;exitDx=0;exitDy=0;exitPerimeter=0;" edge="1" parent="1" source="NTB_mvJWUSRS30ezu_pN-2" target="NTB_mvJWUSRS30ezu_pN-5">
          <mxGeometry width="50" height="50" relative="1" as="geometry">
            <mxPoint x="100" y="220" as="sourcePoint" />
            <mxPoint x="226.02999999999997" y="151" as="targetPoint" />
          </mxGeometry>
        </mxCell>
        <mxCell id="NTB_mvJWUSRS30ezu_pN-18" value="" style="endArrow=none;html=1;entryX=0;entryY=0.5;entryDx=0;entryDy=0;exitX=0.5;exitY=0.5;exitDx=0;exitDy=0;exitPerimeter=0;" edge="1" parent="1" source="NTB_mvJWUSRS30ezu_pN-2" target="NTB_mvJWUSRS30ezu_pN-10">
          <mxGeometry width="50" height="50" relative="1" as="geometry">
            <mxPoint x="105" y="230" as="sourcePoint" />
            <mxPoint x="230" y="200" as="targetPoint" />
          </mxGeometry>
        </mxCell>
        <mxCell id="NTB_mvJWUSRS30ezu_pN-19" value="" style="endArrow=none;html=1;entryX=0;entryY=0.5;entryDx=0;entryDy=0;exitX=0.5;exitY=0.5;exitDx=0;exitDy=0;exitPerimeter=0;" edge="1" parent="1" source="NTB_mvJWUSRS30ezu_pN-2" target="NTB_mvJWUSRS30ezu_pN-11">
          <mxGeometry width="50" height="50" relative="1" as="geometry">
            <mxPoint x="100" y="220" as="sourcePoint" />
            <mxPoint x="240" y="270" as="targetPoint" />
          </mxGeometry>
        </mxCell>
        <mxCell id="NTB_mvJWUSRS30ezu_pN-22" value="&lt;meta charset=&quot;utf-8&quot;&gt;&lt;span style=&quot;color: rgb(0, 0, 0); font-family: helvetica; font-size: 12px; font-style: normal; font-weight: 400; letter-spacing: normal; text-align: center; text-indent: 0px; text-transform: none; word-spacing: 0px; background-color: rgb(248, 249, 250); display: inline; float: none;&quot;&gt;Receive order&lt;/span&gt;" style="endArrow=none;html=1;exitX=0;exitY=0.5;exitDx=0;exitDy=0;entryX=0.5;entryY=0.5;entryDx=0;entryDy=0;entryPerimeter=0;" edge="1" parent="1" source="NTB_mvJWUSRS30ezu_pN-9" target="NTB_mvJWUSRS30ezu_pN-7">
          <mxGeometry width="50" height="50" relative="1" as="geometry">
            <mxPoint x="200" y="-10" as="sourcePoint" />
            <mxPoint x="115" as="targetPoint" />
          </mxGeometry>
        </mxCell>
        <mxCell id="NTB_mvJWUSRS30ezu_pN-25" value="Cook" style="shape=umlActor;verticalLabelPosition=bottom;verticalAlign=top;html=1;outlineConnect=0;" vertex="1" parent="1">
          <mxGeometry x="620" y="140" width="30" height="60" as="geometry" />
        </mxCell>
        <mxCell id="NTB_mvJWUSRS30ezu_pN-26" value="Cook food" style="ellipse;whiteSpace=wrap;html=1;" vertex="1" parent="1">
          <mxGeometry x="430" y="150" width="90" height="40" as="geometry" />
        </mxCell>
        <mxCell id="NTB_mvJWUSRS30ezu_pN-27" value="" style="endArrow=none;html=1;entryX=0.5;entryY=0.5;entryDx=0;entryDy=0;entryPerimeter=0;exitX=1;exitY=0.5;exitDx=0;exitDy=0;" edge="1" target="NTB_mvJWUSRS30ezu_pN-25" parent="1" source="NTB_mvJWUSRS30ezu_pN-26">
          <mxGeometry width="50" height="50" relative="1" as="geometry">
            <mxPoint x="660" y="200" as="sourcePoint" />
            <mxPoint x="240" y="380" as="targetPoint" />
          </mxGeometry>
        </mxCell>
        <mxCell id="NTB_mvJWUSRS30ezu_pN-29" value="" style="endArrow=none;html=1;entryX=0.5;entryY=0.5;entryDx=0;entryDy=0;entryPerimeter=0;exitX=0.5;exitY=0.5;exitDx=0;exitDy=0;exitPerimeter=0;" edge="1" parent="1" source="NTB_mvJWUSRS30ezu_pN-7" target="NTB_mvJWUSRS30ezu_pN-25">
          <mxGeometry width="50" height="50" relative="1" as="geometry">
            <mxPoint x="657.8291741863038" y="266.3211774223737" as="sourcePoint" />
            <mxPoint x="755" y="240" as="targetPoint" />
          </mxGeometry>
        </mxCell>
        <mxCell id="NTB_mvJWUSRS30ezu_pN-35" value="Confirm orders" style="edgeLabel;html=1;align=center;verticalAlign=middle;resizable=0;points=[];" vertex="1" connectable="0" parent="NTB_mvJWUSRS30ezu_pN-29">
          <mxGeometry x="0.0897" y="-1" relative="1" as="geometry">
            <mxPoint as="offset" />
          </mxGeometry>
        </mxCell>
        <mxCell id="NTB_mvJWUSRS30ezu_pN-31" value="" style="endArrow=none;html=1;exitX=0.5;exitY=0.5;exitDx=0;exitDy=0;exitPerimeter=0;" edge="1" parent="1" source="NTB_mvJWUSRS30ezu_pN-3" target="NTB_mvJWUSRS30ezu_pN-11">
          <mxGeometry width="50" height="50" relative="1" as="geometry">
            <mxPoint x="400" y="450" as="sourcePoint" />
            <mxPoint x="210" y="340" as="targetPoint" />
          </mxGeometry>
        </mxCell>
        <mxCell id="NTB_mvJWUSRS30ezu_pN-32" value="accept payment" style="edgeLabel;html=1;align=center;verticalAlign=middle;resizable=0;points=[];" vertex="1" connectable="0" parent="NTB_mvJWUSRS30ezu_pN-31">
          <mxGeometry x="0.1669" y="-1" relative="1" as="geometry">
            <mxPoint as="offset" />
          </mxGeometry>
        </mxCell>
        <mxCell id="NTB_mvJWUSRS30ezu_pN-34" value="" style="endArrow=none;html=1;exitX=0.5;exitY=0;exitDx=0;exitDy=0;entryX=0.5;entryY=0.5;entryDx=0;entryDy=0;entryPerimeter=0;" edge="1" parent="1" source="NTB_mvJWUSRS30ezu_pN-5" target="NTB_mvJWUSRS30ezu_pN-7">
          <mxGeometry width="50" height="50" relative="1" as="geometry">
            <mxPoint x="130" y="120" as="sourcePoint" />
            <mxPoint x="120" as="targetPoint" />
          </mxGeometry>
        </mxCell>
        <mxCell id="NTB_mvJWUSRS30ezu_pN-39" value="Serve food" style="ellipse;whiteSpace=wrap;html=1;" vertex="1" parent="1">
          <mxGeometry x="210" y="-70" width="90" height="40" as="geometry" />
        </mxCell>
        <mxCell id="NTB_mvJWUSRS30ezu_pN-40" value="" style="endArrow=none;html=1;entryX=0.5;entryY=0.5;entryDx=0;entryDy=0;entryPerimeter=0;exitX=0;exitY=0.35;exitDx=0;exitDy=0;exitPerimeter=0;" edge="1" parent="1" source="NTB_mvJWUSRS30ezu_pN-39" target="NTB_mvJWUSRS30ezu_pN-7">
          <mxGeometry width="50" height="50" relative="1" as="geometry">
            <mxPoint x="80" y="50" as="sourcePoint" />
            <mxPoint x="130" as="targetPoint" />
          </mxGeometry>
        </mxCell>
        <mxCell id="NTB_mvJWUSRS30ezu_pN-41" value="Order Wine" style="ellipse;whiteSpace=wrap;html=1;" vertex="1" parent="1">
          <mxGeometry x="380" y="-10" width="90" height="40" as="geometry" />
        </mxCell>
        <mxCell id="NTB_mvJWUSRS30ezu_pN-42" value="&amp;lt;&amp;lt;extend&amp;gt;&amp;gt;" style="endArrow=none;html=1;" edge="1" parent="1" target="NTB_mvJWUSRS30ezu_pN-41">
          <mxGeometry width="50" height="50" relative="1" as="geometry">
            <mxPoint x="300" y="10" as="sourcePoint" />
            <mxPoint x="380" y="10" as="targetPoint" />
          </mxGeometry>
        </mxCell>
      </root>
    </mxGraphModel>
  </diagram>
</mxfile>
